<svg width="16" height="16" viewBox="0 0 16 16" fill="none" xmlns="http://www.w3.org/2000/svg">
<path fill-rule="evenodd" clip-rule="evenodd" d="M13.5396 3.78498C13.5989 3.87511 13.6254 3.98297 13.6145 4.09035C13.6035 4.19772 13.5559 4.29804 13.4796 4.37435L7.73393 10.1194C7.67515 10.1781 7.60182 10.2202 7.52143 10.2412L5.12831 10.8662C5.0492 10.8869 4.96607 10.8864 4.88718 10.865C4.80828 10.8436 4.73636 10.8019 4.67855 10.7441C4.62075 10.6863 4.57906 10.6144 4.55764 10.5355C4.53622 10.4566 4.5358 10.3735 4.55643 10.2944L5.18143 7.90185C5.20012 7.8302 5.23449 7.7636 5.28206 7.70685L11.0489 1.94373C11.1368 1.85595 11.256 1.80664 11.3802 1.80664C11.5044 1.80664 11.6235 1.85595 11.7114 1.94373L13.4796 3.71123C13.5014 3.73425 13.5215 3.75891 13.5396 3.78498ZM12.4852 4.04248L11.3802 2.9381L6.05643 8.26185L5.66581 9.75748L7.16143 9.36685L12.4852 4.04248Z" fill="#5F33E1"/>
<path d="M12.4058 11.125C12.5766 9.66492 12.6311 8.19362 12.5689 6.72495C12.5674 6.69034 12.5732 6.65579 12.5857 6.62352C12.5983 6.59124 12.6175 6.56193 12.642 6.53745L13.257 5.92245C13.2738 5.90555 13.2951 5.89386 13.3184 5.88879C13.3417 5.88372 13.366 5.88548 13.3883 5.89386C13.4106 5.90225 13.43 5.9169 13.4442 5.93605C13.4584 5.9552 13.4667 5.97804 13.4683 6.00183C13.5837 7.74635 13.5398 9.49778 13.337 11.2343C13.1895 12.4981 12.1745 13.4887 10.9164 13.6293C8.73222 13.8711 6.52805 13.8711 4.34389 13.6293C3.08639 13.4887 2.07076 12.4981 1.92326 11.2343C1.66458 9.01893 1.66458 6.78097 1.92326 4.56558C2.07076 3.30183 3.08576 2.3112 4.34389 2.17058C6.00167 1.98748 7.67183 1.94295 9.33701 2.03745C9.36084 2.03916 9.38368 2.04767 9.40283 2.06196C9.42198 2.07625 9.43662 2.09573 9.44504 2.11809C9.45346 2.14045 9.45529 2.16475 9.45033 2.18812C9.44536 2.21149 9.4338 2.23295 9.41701 2.24995L8.79639 2.86995C8.77212 2.89423 8.74312 2.91325 8.71118 2.92583C8.67925 2.93841 8.64506 2.94428 8.61076 2.94308C7.22123 2.89548 5.83008 2.94875 4.44826 3.10245C4.04447 3.14714 3.66754 3.32665 3.37836 3.61198C3.08917 3.89731 2.90462 4.2718 2.85451 4.67495C2.6038 6.81764 2.6038 8.98226 2.85451 11.125C2.90462 11.5281 3.08917 11.9026 3.37836 12.1879C3.66754 12.4732 4.04447 12.6528 4.44826 12.6975C6.54514 12.9318 8.71513 12.9318 10.8126 12.6975C11.2164 12.6528 11.5934 12.4732 11.8825 12.1879C12.1717 11.9026 12.3557 11.5281 12.4058 11.125Z" fill="#5F33E1"/>
</svg>
